<svg width="311" height="81" viewBox="0 0 311 81" fill="none" xmlns="http://www.w3.org/2000/svg">
<path d="M310.25 31.5C310.25 33.4054 309.3 35.3483 307.313 37.3153C305.324 39.284 302.352 41.219 298.456 43.0848C290.668 46.8146 279.351 50.1937 265.306 53.0388C237.228 58.7266 198.406 62.25 155.5 62.25C112.594 62.25 73.7715 58.7266 45.6938 53.0388C31.6488 50.1937 20.3316 46.8146 12.5439 43.0848C8.64829 41.219 5.67554 39.284 3.68685 37.3153C1.69983 35.3483 0.75 33.4054 0.75 31.5C0.75 29.5946 1.69983 27.6517 3.68685 25.6847C5.67554 23.716 8.64829 21.781 12.5439 19.9152C20.3316 16.1854 31.6488 12.8063 45.6938 9.96121C73.7715 4.27343 112.594 0.75 155.5 0.75C198.406 0.75 237.228 4.27343 265.306 9.96121C279.351 12.8063 290.668 16.1854 298.456 19.9152C302.352 21.781 305.324 23.716 307.313 25.6847C309.3 27.6517 310.25 29.5946 310.25 31.5Z" stroke="url(#paint0_linear_1965_319)" stroke-width="1.5"/>
<circle cx="149" cy="64" r="17" fill="#0C8A7B"/>
<path fill-rule="evenodd" clip-rule="evenodd" d="M141.571 59C141.571 56.2386 143.874 54 146.714 54H151.286C154.126 54 156.429 56.2386 156.429 59V60.6846C157.74 61.1406 158.853 61.7258 159.652 62.4199C160.467 63.1271 161 63.9892 161 64.9648C161 66.1695 160.193 67.196 159.027 67.9883C157.85 68.788 156.215 69.4198 154.319 69.8313C154.17 69.8636 154.022 69.8362 153.901 69.7655C153.772 69.69 153.673 69.5649 153.637 69.4102C153.607 69.2789 153.627 69.148 153.686 69.0368C153.761 68.8945 153.897 68.7845 154.07 68.7469C154.494 68.655 154.9 68.5523 155.286 68.44V59C155.286 57.1991 154.027 55.684 152.318 55.2417C152.02 56.1333 151.159 56.7778 150.143 56.7778H147.857C146.841 56.7778 145.98 56.1333 145.682 55.2417C143.973 55.684 142.714 57.1991 142.714 59V68.44C144.021 68.82 145.542 69.0874 147.195 69.2013L145.084 65.856C144.919 65.5945 145.004 65.2525 145.273 65.092C145.542 64.9317 145.893 65.0136 146.059 65.2751L148.735 69.5176C148.865 69.7243 148.843 69.9892 148.679 70.1723L145.431 73.8087C145.224 74.0403 144.864 74.0651 144.626 73.8639C144.553 73.8026 144.5 73.7273 144.468 73.6458C144.393 73.4598 144.425 73.2412 144.569 73.0802L147.047 70.305C144.482 70.1216 142.18 69.5819 140.434 68.7936C138.474 67.909 137 66.602 137 64.9648C137 63.9511 137.575 63.0606 138.445 62.3374C139.235 61.6807 140.31 61.1235 141.571 60.6847V59ZM158.372 67.0777C157.844 67.4368 157.189 67.7681 156.429 68.0585V61.8711C157.472 62.2693 158.306 62.7412 158.891 63.2487C159.558 63.8279 159.857 64.4117 159.857 64.9648C159.857 65.6462 159.398 66.3803 158.372 67.0777ZM139.188 63.1819C139.769 62.6987 140.576 62.2512 141.571 61.8711V68.0585C141.343 67.9714 141.124 67.8804 140.915 67.7858C139.026 66.9331 138.143 65.9007 138.143 64.9648C138.143 64.3905 138.465 63.7821 139.188 63.1819Z" fill="white"/>
<defs>
<linearGradient id="paint0_linear_1965_319" x1="351.37" y1="46.8" x2="24.6645" y2="-52.6676" gradientUnits="userSpaceOnUse">
<stop stop-color="#0C8A7B"/>
<stop offset="1" stop-color="white" stop-opacity="0"/>
</linearGradient>
</defs>
</svg>
