<svg width="32" height="32" viewBox="0 0 32 32" fill="none" xmlns="http://www.w3.org/2000/svg">
<rect width="32" height="32" rx="16" fill="#0C8A7B"/>
<path d="M13 14C13 15.6115 14.3064 16.9179 15.9179 16.9179V16.9179C17.5294 16.9179 18.8358 15.6115 18.8358 14" stroke="white" stroke-width="1.3" stroke-linecap="round" stroke-linejoin="round"/>
<path d="M13.082 11.8318V11.415C13.082 9.80345 14.3884 8.49707 15.9999 8.49707V8.49707C17.6114 8.49707 18.9178 9.80345 18.9178 11.415V11.8318" stroke="white" stroke-width="1.3" stroke-linecap="round" stroke-linejoin="round"/>
<path fill-rule="evenodd" clip-rule="evenodd" d="M11.3851 11.8318C10.5046 11.8318 9.77595 12.5164 9.72103 13.3951L9.33837 19.5177C9.27377 20.5513 9.6393 21.5656 10.3484 22.3204C11.0574 23.0752 12.047 23.5033 13.0826 23.5033H18.918C19.9537 23.5033 20.9432 23.0752 21.6523 22.3204C22.3614 21.5657 22.7269 20.5513 22.6623 19.5177L22.2796 13.3951C22.2247 12.5164 21.496 11.8318 20.6156 11.8318H11.3851Z" stroke="white" stroke-width="1.3" stroke-linecap="round" stroke-linejoin="round"/>
</svg>
