<svg width="24" height="24" viewBox="0 0 24 24" fill="none" xmlns="http://www.w3.org/2000/svg">
<rect x="6" y="2" width="12" height="12" rx="2" stroke="#828A89" stroke-width="1.5"/>
<path d="M13 5L11 5" stroke="#828A89" stroke-width="1.5" stroke-linecap="round" stroke-linejoin="round"/>
<path d="M5.43409 15.8284L3.88418 14.3154C3.6773 14.1135 3.39671 14 3.10414 14C2.33392 14 1.80079 14.751 2.07124 15.455L3.58841 19.4045C4.18814 20.9657 5.71702 22 7.42506 22H20.5513C21.3514 22 22 21.3668 22 20.5858C22 20.2107 21.8474 19.851 21.5757 19.5858L20.127 18.1716C19.3585 17.4214 18.3163 17 17.2296 17H8.33149C7.24475 17 6.20252 16.5786 5.43409 15.8284Z" stroke="#828A89" stroke-width="1.5"/>
</svg>
