<svg width="24" height="24" viewBox="0 0 24 24" fill="none" xmlns="http://www.w3.org/2000/svg">
<path d="M2 8V6C2 3.79086 3.79086 2 6 2H8M16 2H18C20.2091 2 22 3.79086 22 6V8M22 16V18C22 20.2091 20.2091 22 18 22H16M8 22H6C3.79086 22 2 20.2091 2 18V16.5556M12 17C15.0779 17 17.7498 14.5735 19.0877 13.1013C19.6638 12.4674 19.6638 11.5326 19.0877 10.8987C17.7498 9.42646 15.0779 7 12 7C8.9221 7 6.25017 9.42646 4.91227 10.8987C4.33619 11.5326 4.33619 12.4674 4.91227 13.1013C6.25017 14.5735 8.9221 17 12 17ZM14 12C14 13.1046 13.1046 14 12 14C10.8954 14 10 13.1046 10 12C10 10.8954 10.8954 10 12 10C13.1046 10 14 10.8954 14 12Z" stroke="white" stroke-width="1.5" stroke-linecap="round" stroke-linejoin="round"/>
</svg>
