<svg width="20" height="20" viewBox="0 0 20 20" fill="none" xmlns="http://www.w3.org/2000/svg">
<path fill-rule="evenodd" clip-rule="evenodd" d="M15.3333 11.5001H5.33333V9.41675C5.33333 8.72675 4.77333 8.16675 4.08333 8.16675H3.25C2.56 8.16675 2 8.72675 2 9.41675V13.1667C2 14.0876 2.74583 14.8334 3.66667 14.8334H17C17.9208 14.8334 18.6667 14.0876 18.6667 13.1667V9.41675C18.6667 8.72675 18.1067 8.16675 17.4167 8.16675H16.5833C15.8933 8.16675 15.3333 8.72675 15.3333 9.41675V11.5001Z" stroke="#828A89" stroke-width="1.4" stroke-linecap="round" stroke-linejoin="round"/>
<path d="M4.50016 14.8333V16.4999" stroke="#828A89" stroke-width="1.4" stroke-linecap="round" stroke-linejoin="round"/>
<path d="M16.1667 14.8333V16.4999" stroke="#828A89" stroke-width="1.4" stroke-linecap="round" stroke-linejoin="round"/>
<path d="M3.6665 8.16667V6.5C3.6665 5.11917 4.78567 4 6.1665 4H14.4998C15.8807 4 16.9998 5.11917 16.9998 6.5V8.16667" stroke="#828A89" stroke-width="1.4" stroke-linecap="round" stroke-linejoin="round"/>
<path d="M10.3999 4V11.5" stroke="#828A89" stroke-width="1.4"/>
</svg>
