<svg width="20" height="20" viewBox="0 0 20 20" fill="none" xmlns="http://www.w3.org/2000/svg">
<path fill-rule="evenodd" clip-rule="evenodd" d="M16.6665 10H3.33317C2.41234 10 1.6665 10.7458 1.6665 11.6667V14.1108C1.6665 14.5708 2.03984 14.9442 2.49984 14.9442H17.4998C17.9598 14.9442 18.3332 14.5708 18.3332 14.1108V11.6667C18.3332 10.7458 17.5873 10 16.6665 10Z" stroke="#828A89" stroke-width="1.4" stroke-linecap="round" stroke-linejoin="round"/>
<path d="M3.33301 9.99997V5.77747C3.33301 4.39663 4.45217 3.27747 5.83301 3.27747H14.1663C15.5472 3.27747 16.6663 4.39663 16.6663 5.77747V9.99997" stroke="#828A89" stroke-width="1.4" stroke-linecap="round" stroke-linejoin="round"/>
<path d="M17.4997 15V16.6083" stroke="#828A89" stroke-width="1.4" stroke-linecap="round" stroke-linejoin="round"/>
<path d="M2.49967 15V16.6083" stroke="#828A89" stroke-width="1.4" stroke-linecap="round" stroke-linejoin="round"/>
<path d="M6.25 10V10C6.25 8.61917 7.36917 7.5 8.75 7.5H11.25C12.6308 7.5 13.75 8.61917 13.75 10V10" stroke="#828A89" stroke-width="1.4" stroke-linecap="round" stroke-linejoin="round"/>
</svg>
