<svg width="20" height="20" viewBox="0 0 20 20" fill="none" xmlns="http://www.w3.org/2000/svg">
<path d="M4.80829 4.63745C2.68162 6.76328 2.13662 9.86745 3.16329 12.5" stroke="#828A89" stroke-width="1.4" stroke-linecap="round" stroke-linejoin="round"/>
<path d="M16.8374 12.5C17.864 9.86745 17.3182 6.76328 15.1924 4.63745" stroke="#828A89" stroke-width="1.4" stroke-linecap="round" stroke-linejoin="round"/>
<path d="M15.3057 15.3032C12.3757 18.2324 7.62482 18.2324 4.69482 15.3032" stroke="#828A89" stroke-width="1.4" stroke-linecap="round" stroke-linejoin="round"/>
<path d="M13.2751 13.2749C11.4659 15.0841 8.53343 15.0841 6.7251 13.2749" stroke="#828A89" stroke-width="1.4" stroke-linecap="round" stroke-linejoin="round"/>
<path d="M8.29492 5.63505H11.7049" stroke="#828A89" stroke-width="1.4" stroke-linecap="round" stroke-linejoin="round"/>
<path fill-rule="evenodd" clip-rule="evenodd" d="M11.865 5.79167C12.8225 6.46833 13.3967 7.65 13.195 8.95083C12.9758 10.3567 11.8042 11.4792 10.3908 11.6442C8.42916 11.8742 6.76416 10.3475 6.76416 8.4325C6.76416 7.34083 7.30666 6.3775 8.13583 5.79167C8.28416 5.68667 8.38249 5.52417 8.38249 5.34167V3.84833C8.38249 3.10417 8.98583 2.5 9.73083 2.5H10.27C11.0142 2.5 11.6183 3.10333 11.6183 3.84833V5.3375C11.6175 5.5225 11.7158 5.685 11.865 5.79167V5.79167Z" stroke="#828A89" stroke-width="1.4" stroke-linecap="round" stroke-linejoin="round"/>
</svg>
