<svg width="20" height="20" viewBox="0 0 20 20" fill="none" xmlns="http://www.w3.org/2000/svg">
<path fill-rule="evenodd" clip-rule="evenodd" d="M14.9998 11.6666H4.99984V9.58325C4.99984 8.89325 4.43984 8.33325 3.74984 8.33325H2.9165C2.2265 8.33325 1.6665 8.89325 1.6665 9.58325V13.3333C1.6665 14.2541 2.41234 14.9999 3.33317 14.9999H16.6665C17.5873 14.9999 18.3332 14.2541 18.3332 13.3333V9.58325C18.3332 8.89325 17.7732 8.33325 17.0832 8.33325H16.2498C15.5598 8.33325 14.9998 8.89325 14.9998 9.58325V11.6666Z" stroke="white" stroke-width="1.4" stroke-linecap="round" stroke-linejoin="round"/>
<path d="M4.16667 15V16.6667" stroke="white" stroke-width="1.4" stroke-linecap="round" stroke-linejoin="round"/>
<path d="M15.8332 15V16.6667" stroke="white" stroke-width="1.4" stroke-linecap="round" stroke-linejoin="round"/>
<path d="M3.33301 8.33329V6.66663C3.33301 5.28579 4.45217 4.16663 5.83301 4.16663H14.1663C15.5472 4.16663 16.6663 5.28579 16.6663 6.66663V8.33329" stroke="white" stroke-width="1.4" stroke-linecap="round" stroke-linejoin="round"/>
</svg>
