<svg width="24" height="24" viewBox="0 0 24 24" fill="none" xmlns="http://www.w3.org/2000/svg">
<path d="M8.04 13.62L7.44 14.07H7.44L8.04 13.62ZM9.12 15.06L9.72 14.61L9.72 14.61L9.12 15.06ZM14.88 15.06L14.28 14.61L14.88 15.06ZM15.96 13.62L15.36 13.17V13.17L15.96 13.62ZM9.3 9.45C8.88579 9.45 8.55 9.78579 8.55 10.2C8.55 10.6142 8.88579 10.95 9.3 10.95V9.45ZM12 10.95C12.4142 10.95 12.75 10.6142 12.75 10.2C12.75 9.78579 12.4142 9.45 12 9.45V10.95ZM9.3 5.85C8.88579 5.85 8.55 6.18579 8.55 6.6C8.55 7.01421 8.88579 7.35 9.3 7.35V5.85ZM14.7 7.35C15.1142 7.35 15.45 7.01421 15.45 6.6C15.45 6.18579 15.1142 5.85 14.7 5.85V7.35ZM20.25 15.6V18.3H21.75V15.6H20.25ZM18.3 20.25H5.7V21.75H18.3V20.25ZM3.75 18.3V15.6H2.25V18.3H3.75ZM5.7 13.65H6.6V12.15H5.7V13.65ZM7.44 14.07L8.52 15.51L9.72 14.61L8.64 13.17L7.44 14.07ZM17.4 13.65H18.3V12.15H17.4V13.65ZM15.48 15.51L16.56 14.07L15.36 13.17L14.28 14.61L15.48 15.51ZM12 17.25C13.3692 17.25 14.6585 16.6054 15.48 15.51L14.28 14.61C13.7418 15.3276 12.8971 15.75 12 15.75V17.25ZM17.4 12.15C16.5974 12.15 15.8416 12.5279 15.36 13.17L16.56 14.07C16.7583 13.8056 17.0695 13.65 17.4 13.65V12.15ZM8.52 15.51C9.34152 16.6054 10.6308 17.25 12 17.25V15.75C11.1029 15.75 10.2582 15.3276 9.72 14.61L8.52 15.51ZM6.6 13.65C6.9305 13.65 7.2417 13.8056 7.44 14.07L8.64 13.17C8.15842 12.5279 7.40263 12.15 6.6 12.15V13.65ZM5.7 20.25C4.62304 20.25 3.75 19.377 3.75 18.3H2.25C2.25 20.2054 3.79462 21.75 5.7 21.75V20.25ZM20.25 18.3C20.25 19.377 19.377 20.25 18.3 20.25V21.75C20.2054 21.75 21.75 20.2054 21.75 18.3H20.25ZM21.75 15.6C21.75 13.6946 20.2054 12.15 18.3 12.15V13.65C19.377 13.65 20.25 14.523 20.25 15.6H21.75ZM3.75 15.6C3.75 14.523 4.62304 13.65 5.7 13.65V12.15C3.79462 12.15 2.25 13.6946 2.25 15.6H3.75ZM19.95 12.9V6.6H18.45V12.9H19.95ZM15.6 2.25H8.4V3.75H15.6V2.25ZM4.05 6.6V12.9H5.55V6.6H4.05ZM8.4 2.25C5.99756 2.25 4.05 4.19756 4.05 6.6H5.55C5.55 5.02599 6.82599 3.75 8.4 3.75V2.25ZM19.95 6.6C19.95 4.19756 18.0024 2.25 15.6 2.25V3.75C17.174 3.75 18.45 5.02599 18.45 6.6H19.95ZM9.3 10.95H12V9.45H9.3V10.95ZM9.3 7.35H14.7V5.85H9.3V7.35Z" fill="#828A89"/>
</svg>
