<svg width="121" height="21" viewBox="0 0 121 21" fill="none" xmlns="http://www.w3.org/2000/svg">
<path d="M10.036 1.15543C10.204 0.737191 10.796 0.73719 10.964 1.15542L13.0986 6.47105C13.1701 6.64915 13.3373 6.77059 13.5288 6.78358L19.2438 7.17109C19.6935 7.20158 19.8765 7.76467 19.5306 8.05365L15.1348 11.7264C14.9875 11.8494 14.9236 12.046 14.9705 12.2321L16.368 17.7872C16.4779 18.2243 15.9989 18.5723 15.6172 18.3326L10.7659 15.2869C10.6033 15.1849 10.3967 15.1849 10.2341 15.2869L5.38277 18.3326C5.00106 18.5723 4.52207 18.2243 4.63202 17.7872L6.02954 12.2321C6.07636 12.046 6.01251 11.8494 5.86523 11.7264L1.4694 8.05365C1.12354 7.76467 1.3065 7.20158 1.75616 7.17109L7.47125 6.78358C7.66273 6.77059 7.82989 6.64915 7.90141 6.47105L10.036 1.15543Z" fill="#EAC92C"/>
<path d="M35.036 1.15543C35.204 0.737191 35.796 0.73719 35.964 1.15542L38.0986 6.47105C38.1701 6.64915 38.3373 6.77059 38.5288 6.78358L44.2438 7.17109C44.6935 7.20158 44.8765 7.76467 44.5306 8.05365L40.1348 11.7264C39.9875 11.8494 39.9236 12.046 39.9705 12.2321L41.368 17.7872C41.4779 18.2243 40.9989 18.5723 40.6172 18.3326L35.7659 15.2869C35.6033 15.1849 35.3967 15.1849 35.2341 15.2869L30.3828 18.3326C30.0011 18.5723 29.5221 18.2243 29.632 17.7872L31.0295 12.2321C31.0764 12.046 31.0125 11.8494 30.8652 11.7264L26.4694 8.05365C26.1235 7.76467 26.3065 7.20158 26.7562 7.17109L32.4712 6.78358C32.6627 6.77059 32.8299 6.64915 32.9014 6.47105L35.036 1.15543Z" fill="#EAC92C"/>
<path d="M60.036 1.15543C60.204 0.737191 60.796 0.73719 60.964 1.15542L63.0986 6.47105C63.1701 6.64915 63.3373 6.77059 63.5288 6.78358L69.2438 7.17109C69.6935 7.20158 69.8765 7.76467 69.5306 8.05365L65.1348 11.7264C64.9875 11.8494 64.9236 12.046 64.9705 12.2321L66.368 17.7872C66.4779 18.2243 65.9989 18.5723 65.6172 18.3326L60.7659 15.2869C60.6033 15.1849 60.3967 15.1849 60.2341 15.2869L55.3828 18.3326C55.0011 18.5723 54.5221 18.2243 54.632 17.7872L56.0295 12.2321C56.0764 12.046 56.0125 11.8494 55.8652 11.7264L51.4694 8.05365C51.1235 7.76467 51.3065 7.20158 51.7562 7.17109L57.4712 6.78358C57.6627 6.77059 57.8299 6.64915 57.9014 6.47105L60.036 1.15543Z" fill="#EAC92C"/>
<path d="M85.036 1.15543C85.204 0.737191 85.796 0.73719 85.964 1.15542L88.0986 6.47105C88.1701 6.64915 88.3373 6.77059 88.5288 6.78358L94.2438 7.17109C94.6935 7.20158 94.8765 7.76467 94.5306 8.05365L90.1348 11.7264C89.9875 11.8494 89.9236 12.046 89.9705 12.2321L91.368 17.7872C91.4779 18.2243 90.9989 18.5723 90.6172 18.3326L85.7659 15.2869C85.6033 15.1849 85.3967 15.1849 85.2341 15.2869L80.3828 18.3326C80.0011 18.5723 79.5221 18.2243 79.632 17.7872L81.0295 12.2321C81.0764 12.046 81.0125 11.8494 80.8652 11.7264L76.4694 8.05365C76.1235 7.76467 76.3065 7.20158 76.7562 7.17109L82.4712 6.78358C82.6627 6.77059 82.8299 6.64915 82.9014 6.47105L85.036 1.15543Z" fill="#EAC92C"/>
<path d="M110.036 1.15543C110.204 0.737191 110.796 0.73719 110.964 1.15542L113.099 6.47105C113.17 6.64915 113.337 6.77059 113.529 6.78358L119.244 7.17109C119.694 7.20158 119.876 7.76467 119.531 8.05365L115.135 11.7264C114.987 11.8494 114.924 12.046 114.97 12.2321L116.368 17.7872C116.478 18.2243 115.999 18.5723 115.617 18.3326L110.766 15.2869C110.603 15.1849 110.397 15.1849 110.234 15.2869L105.383 18.3326C105.001 18.5723 104.522 18.2243 104.632 17.7872L106.03 12.2321C106.076 12.046 106.013 11.8494 105.865 11.7264L101.469 8.05365C101.124 7.76467 101.306 7.20158 101.756 7.17109L107.471 6.78358C107.663 6.77059 107.83 6.64915 107.901 6.47105L110.036 1.15543Z" fill="#F0F0F2"/>
<path d="M105.383 18.3326L110.266 15.267C110.411 15.1755 110.5 15.0156 110.5 14.8435V1.03474C110.5 0.814683 110.196 0.756004 110.114 0.960213L107.901 6.47105C107.83 6.64915 107.662 6.77059 107.471 6.78358L101.756 7.17109C101.306 7.20158 101.123 7.76467 101.469 8.05365L105.865 11.7264C106.012 11.8494 106.076 12.046 106.029 12.2321L104.632 17.7872C104.522 18.2243 105.001 18.5723 105.383 18.3326Z" fill="#EAC92C"/>
</svg>
